<svg width="20" height="33" viewBox="0 0 20 33" fill="none" xmlns="http://www.w3.org/2000/svg">
<path fill-rule="evenodd" clip-rule="evenodd" d="M0 13.6135V27.7185C0 27.7185 2.31556 26.1447 4.8171 24.4036V16.9839C4.8171 13.1718 5.97579 11.942 9.11302 9.63191C10.0989 8.90593 11.6122 7.79283 13.108 6.69281V-0.219191C13.108 -0.219191 6.88448 4.35541 4.29591 6.26149C1.15869 8.57159 0 9.80136 0 13.6135ZM6.38933 32.2928V18.1878C6.38933 14.3756 7.54801 13.1459 10.6852 10.8358C13.2738 8.92968 19.4974 4.35508 19.4974 4.35508V16.6629C19.4974 17.0162 19.5002 17.3531 19.503 17.6758C19.532 21.0844 19.5475 22.9031 16.0276 25.5398C13.1196 27.7182 6.38933 32.2928 6.38933 32.2928Z" fill="#101010"/>
</svg>
